PathFileType	4	(X/Y/Z)	D:\TRACE\spotREDO_2-26-24\spot_Both_Motion_3_4-v60.trc
DataRate	CameraRate	NumFrames	NumMarkers	Units	OrigDataRate	OrigDataStartFrame	OrigNumFrames
100.00	100.00	      25	9	mm	100.00	876	      7000
Frame#	Time	front left toe			Front right toe			aft left toe			aft right toe			Arm			FL body			FR body			AL Body			AR Body			
		X1	Y1	Z1	X2	Y2	Z2	X3	Y3	Z3	X4	Y4	Z4	X5	Y5	Z5	X6	Y6	Z6	X7	Y7	Z7	X8	Y8	Z8	X9	Y9	Z9	

876	8.750	-148.22911	-1.51097	-447.73959	256.33762	-2.57427	-485.24185	-99.91346	23.75359	148.55359	278.93073	25.28967	39.54129	56.63670	678.00226	-778.88251	-53.53642	541.69116	-530.83777	101.33542	546.85931	-546.18195	27.29929	574.62018	348.90585	174.18719	569.43225	337.37357	
877	8.760	-148.12083	-1.61237	-447.72672	256.69180	-2.69876	-485.34149	-99.62796	23.87357	148.59067	279.13916	25.29523	39.51939	57.18785	678.04169	-779.05841	-53.54097	541.62085	-531.26514	101.19109	546.75122	-546.81055	27.21375	574.87952	348.20676	174.16403	569.71265	336.82242	
878	8.770	-147.91969	-1.78487	-447.82870	256.92673	-2.76401	-485.44067	-99.52697	23.88679	148.51103	279.35513	25.29033	39.33917	57.62169	678.05701	-779.32776	-53.59132	541.51648	-532.04077	101.10490	546.51514	-547.52216	26.88213	575.08307	347.40594	174.45529	569.90057	336.46765	
879	8.780	-147.72861	-1.90481	-447.92676	257.05316	-2.90176	-485.35504	-99.42408	23.84716	148.41185	279.57852	25.24199	39.31752	58.09475	677.89117	-779.72540	-53.23106	541.22412	-532.53333	101.21291	546.45508	-548.06152	26.55595	575.06506	346.98114	173.37628	569.82733	335.41034	
880	8.790	-147.49226	-1.91796	-448.02908	257.11536	-3.10002	-485.41367	-99.20169	23.82648	148.31390	279.63263	25.14143	39.24335	58.24952	677.86847	-779.89880	-53.39921	541.35498	-533.53107	101.45872	546.48462	-548.73376	26.27542	575.04340	346.31522	173.15582	569.78461	335.11703	
881	8.800	-147.28505	-1.88917	-448.17685	257.43311	-3.05481	-485.27615	-99.02371	23.89424	148.23422	279.71600	25.14083	39.21040	58.30065	677.88159	-780.01715	-53.33731	541.55664	-534.20190	101.50217	546.62286	-549.47888	25.64751	575.54340	345.76239	172.83311	569.79260	334.37137	
882	8.810	-147.13254	-1.81460	-448.27032	257.48804	-3.34828	-485.60684	-98.91544	24.02972	148.24689	279.94891	25.17857	39.17970	58.35319	677.96204	-780.14630	-52.71251	541.56104	-534.78540	101.74068	546.65997	-549.94696	25.41955	575.48328	345.24506	172.95549	569.85809	333.96585	
883	8.820	-146.96138	-1.89331	-448.33432	257.66443	-3.53710	-485.73843	-98.82974	23.95681	148.17545	280.10312	25.20125	39.12970	58.23938	678.03125	-780.24408	-52.42360	541.64417	-535.38483	102.15767	546.65594	-550.48267	25.04503	575.49774	344.55371	172.50092	569.80267	333.24374	
884	8.830	-146.69487	-2.06847	-448.46597	257.73608	-3.58631	-485.86768	-98.73611	24.03762	148.16780	280.25372	25.20101	39.05246	58.27916	678.08356	-780.30029	-52.41776	541.58600	-536.15082	102.33727	546.60083	-551.23370	24.93620	575.52484	343.88019	172.30162	569.70941	332.76862	
885	8.840	-146.52855	-2.16364	-448.61182	257.92603	-3.89761	-485.91031	-98.59941	23.99334	148.06920	280.46481	25.22272	38.98408	58.40614	678.11035	-780.36212	-52.35627	541.60376	-537.04633	102.42065	546.65240	-551.85681	24.81878	575.53021	343.26346	172.34021	569.74011	332.23987	
886	8.850	-146.22476	-2.33033	-448.66406	258.11307	-4.07383	-486.08569	-98.44279	24.08225	148.02365	280.75095	25.31327	38.92793	58.59414	678.08801	-780.52155	-52.06234	541.60272	-537.77386	102.53542	546.54193	-552.56628	24.87347	575.51373	342.50189	171.82288	569.70367	331.33908	
887	8.860	-146.05522	-2.41481	-448.69678	258.43073	-4.05438	-486.03665	-98.17740	24.17991	147.96600	280.85709	25.33816	38.91247	58.63606	678.09125	-780.58813	-51.73549	541.56934	-538.18152	102.75522	546.52307	-553.15521	24.84428	575.55688	341.94998	171.75081	569.74823	330.78400	
888	8.870	-145.79431	-2.57717	-448.71436	258.84344	-4.33409	-486.12045	-97.73400	24.24314	147.93036	280.88095	25.35965	38.82637	59.25446	677.91339	-780.80725	-51.64051	541.60181	-538.84277	103.00163	546.45807	-553.70923	25.09316	575.48071	341.17566	172.04227	569.60571	330.08627	
889	8.880	-145.51436	-2.75505	-448.85458	259.18860	-4.48350	-486.11325	-97.60162	24.23918	147.81444	280.95523	25.27584	38.65302	59.19773	677.81171	-780.92651	-51.69923	541.60150	-539.79260	103.24617	546.55377	-554.40924	25.16495	575.34424	340.57281	172.01904	569.39551	329.39230	
890	8.890	-145.27409	-3.01920	-449.00613	259.55887	-4.68831	-486.21152	-97.47079	24.22556	147.74173	281.14594	25.20551	38.40857	59.28412	677.64825	-781.04980	-51.65137	541.65985	-540.43365	103.17502	546.57849	-555.16071	25.30662	575.03180	339.93597	172.23036	569.16364	328.74179	
891	8.900	-145.13997	-3.21598	-449.26962	259.62198	-4.51872	-486.33432	-97.17024	23.94863	147.60413	281.23871	25.20423	38.16676	59.50700	677.41516	-781.17603	-51.35447	541.73969	-540.86035	103.19198	546.63647	-555.80334	25.38840	574.03558	338.93185	172.68990	568.79510	328.18048	
892	8.910	-145.06683	-3.48692	-449.15384	259.78372	-4.50311	-486.31726	-97.03427	24.03350	147.70479	281.29742	25.23591	38.15998	59.47430	677.13513	-781.59845	-51.07715	541.72107	-541.43982	103.39554	546.56641	-556.33868	25.89407	573.89178	338.56363	173.23021	568.48895	327.70349	
893	8.920	-144.93884	-3.57992	-449.11356	259.78635	-4.50077	-486.34607	-96.76602	24.02291	147.69341	281.56042	25.23345	38.11099	59.61816	676.23895	-782.79102	-50.93881	542.06311	-541.92065	103.46985	546.71240	-556.66510	26.35202	573.51746	338.24240	173.27219	568.06464	327.14337	
894	8.930	-144.85556	-3.62091	-449.20639	259.88959	-4.64477	-486.46561	-96.50736	24.00540	147.73685	281.78592	25.20867	38.07566	58.79147	674.82385	-784.45258	-50.67861	542.59607	-542.14874	104.05812	547.06592	-556.96094	26.58077	573.13104	338.00439	173.71344	567.04425	326.59589	
895	8.940	-144.57610	-3.74590	-449.38791	260.15674	-4.87413	-486.49835	-96.38654	23.97357	147.69229	281.88773	25.07112	37.99395	57.59325	673.21179	-786.87909	-50.25564	543.12408	-542.32251	104.71931	547.08496	-557.04138	27.00638	572.43988	337.73138	173.85417	566.59546	326.77353	
896	8.950	-144.15543	-3.87654	-449.36646	260.34903	-5.09520	-486.44507	-96.37299	23.91457	147.65398	281.97131	25.01766	37.92673	56.21880	671.56665	-789.78223	-49.39387	543.21906	-542.59155	105.29151	547.14740	-557.28882	27.31777	572.07837	337.62531	174.25601	565.92712	326.86859	
897	8.960	-143.67807	-3.89224	-449.44324	261.10019	-5.43596	-486.35147	-96.20879	24.05603	147.69014	282.38132	25.13585	37.96088	54.59473	670.07410	-792.65521	-48.47045	543.12823	-542.72681	106.28844	546.91150	-557.26385	27.90143	571.92389	337.50360	174.81198	565.60626	326.97638	
898	8.970	-143.45052	-3.91854	-449.49448	261.27731	-5.65095	-486.37158	-95.58518	24.12417	147.57635	282.51065	25.11311	38.01778	52.53207	668.95734	-795.60107	-47.79335	542.85938	-542.77917	107.08538	546.37463	-557.26172	28.49051	572.08087	337.52365	175.55646	565.54846	326.89499	
899	8.980	-143.14093	-4.03340	-449.53680	261.65796	-5.98745	-486.50763	-95.28044	24.49615	147.46071	284.02896	26.25799	39.14548	51.39951	667.88000	-798.10065	-47.43111	542.36548	-542.88757	107.77084	545.96161	-557.26819	29.27447	572.18286	337.42157	176.24809	565.67719	326.68900	
900	8.990	-142.95055	-4.22072	-449.56064	261.67084	-6.01133	-486.60632	-95.24285	25.11692	147.21947	284.29840	26.25442	39.15203	50.98624	667.11615	-800.05481	-47.04777	541.76166	-542.87164	108.06529	545.42413	-557.51740	30.80276	572.49408	337.36783	177.81650	565.95764	326.44928	
